<svg xmlns="http://www.w3.org/2000/svg" xmlns:xlink="http://www.w3.org/1999/xlink" viewBox="0,0,256,256" width="24px" height="24px" fill-rule="nonzero"><g fill="#ffffff" fill-rule="nonzero" stroke="none" stroke-width="1" stroke-linecap="butt" stroke-linejoin="miter" stroke-miterlimit="10" stroke-dasharray="" stroke-dashoffset="0" font-family="none" font-weight="none" font-size="none" text-anchor="none" style="mix-blend-mode: normal"><g transform="scale(10.66667,10.66667)"><path d="M6,3c-1.657,0 -3,1.343 -3,3v12c0,1.657 1.343,3 3,3h12c1.657,0 3,-1.343 3,-3v-12c0,-1.657 -1.343,-3 -3,-3zM11,6h1.5c0.828,0 1.5,0.672 1.5,1.5c0,0.828 -0.672,1.5 -1.5,1.5h-0.5v2h-1zM15.3457,6h1.30078l1.35352,5h-1.0625l-0.25781,-1h-1.36914l-0.25781,1h-1.05273zM8.03516,6.00195c1.172,0.001 1.63813,0.537 1.82813,1h-1.29297l-0.57031,-0.00195c-0.882,-0.013 -1,0.85598 -1,1.08398v0.82813c0,0.232 0.20678,1.09789 1.17578,1.08789c0.283,-0.003 0.80022,-0.16373 0.82422,-0.17773l-0.02148,-0.82227h-0.97852l0.02148,-1h1.97852v2.38086c-0.06,0.056 -0.70858,0.58019 -1.89258,0.61719c-0.322,0.01 -1.97542,0.04002 -2.10742,-2.08398v-0.82227c0,-0.355 -0.04184,-2.09184 2.03516,-2.08984zM12,7v1h0.5c0.276,0 0.5,-0.224 0.5,-0.5c0,-0.276 -0.224,-0.5 -0.5,-0.5zM15.99219,7.35352l-0.42383,1.64648h0.85156zM8.5,13c0.276,0 0.5,0.224 0.5,0.5v1.5h1.5c0.276,0 0.5,0.224 0.5,0.5c0,0.276 -0.224,0.5 -0.5,0.5h-1.5v1.5c0,0.276 -0.224,0.5 -0.5,0.5c-0.276,0 -0.5,-0.224 -0.5,-0.5v-1.5h-1.5c-0.276,0 -0.5,-0.224 -0.5,-0.5c0,-0.276 0.224,-0.5 0.5,-0.5h1.5v-1.5c0,-0.276 0.224,-0.5 0.5,-0.5zM13.5,15h4c0.276,0 0.5,0.224 0.5,0.5c0,0.276 -0.224,0.5 -0.5,0.5h-4c-0.276,0 -0.5,-0.224 -0.5,-0.5c0,-0.276 0.224,-0.5 0.5,-0.5z"></path></g></g></svg>